<svg xmlns="http://www.w3.org/2000/svg" style="display: none;">
  
    <symbol id="icon-twitter" viewBox="0 0 512 512">
      <path d="m481 117c-13 18-28 34-46 47 0 3 0 7 0 12 0 25-3 50-11 74-7 25-18 49-33 71-14 23-32 43-52 61-21 17-45 31-74 41-29 11-60 16-92 16-52 0-99-14-142-42 7 1 14 2 22 2 43 0 81-14 115-40-20 0-38-6-54-18-16-12-27-27-33-46 7 1 13 2 18 2 8 0 16-1 24-4-21-4-39-15-53-31-14-17-21-37-21-59l0-1c13 7 27 11 42 11-13-8-23-19-30-32-8-14-11-29-11-44 0-17 4-33 12-47 23 28 51 51 84 68 33 17 69 27 107 29-2-8-3-15-3-22 0-25 9-47 27-65 18-18 40-27 66-27 26 0 49 10 67 29 21-4 40-11 59-22-7 22-21 39-41 51 18-2 35-7 53-14z"/>
    </symbol>
  
    <symbol id="icon-github" viewBox="0 0 512 512">
      <path d="m475 256c0 48-14 91-41 129-28 38-64 65-109 79-5 1-8 1-11-2-2-2-3-5-3-8l0-61c0-18-5-32-15-40 11-1 20-3 29-5 9-3 18-6 27-11 9-6 17-12 23-19 6-8 11-18 15-30 4-13 6-27 6-43 0-23-8-43-23-59 7-18 7-37-2-59-5-1-13 0-23 4-10 3-19 8-26 12l-11 7c-18-5-36-7-55-7-19 0-37 2-55 7-3-2-7-5-12-8-5-3-13-6-24-11-11-4-19-5-24-4-9 22-9 41-2 59-15 16-23 36-23 59 0 16 2 30 6 42 4 13 9 23 15 30 6 8 14 14 23 20 9 5 18 8 27 11 8 2 18 4 29 5-8 7-12 17-14 29-4 2-8 4-13 5-4 1-10 1-16 1-6 0-13-2-19-6-6-4-11-10-16-18-3-6-8-11-14-15-5-4-10-6-14-7l-5-1c-4 0-7 1-9 2-1 1-2 2-1 3 0 1 1 3 2 4 2 1 3 2 4 3l2 2c4 2 8 5 13 11 4 5 7 10 9 14l2 7c3 7 7 13 13 17 6 5 12 8 19 9 7 1 14 2 20 2 6 0 12 0 16-1l6-1c0 7 0 16 1 25 0 10 0 15 0 16 0 3-2 6-4 8-2 3-6 3-11 2-45-14-81-41-109-79-27-38-41-81-41-129 0-40 9-77 29-110 20-34 46-60 80-80 33-20 70-29 110-29 40 0 77 9 110 29 34 20 60 46 80 80 20 33 29 70 29 110z"/>
    </symbol>
  
    <symbol id="icon-reddit" viewBox="0 0 512 512">
      <path d="m485 251c0-29-24-53-53-53c-12 0-24 5-34 13c0 0 0 0 0 0c-35-22-80-36-131-38l30-85l75 18c0 24 20 43 43 43c24 0 44-19 44-43c0-24-20-43-44-43c-18 0-33 11-39 27l-89-22l-37 105c-53 1-100 15-136 38c-10-8-22-13-34-13c-30 0-53 24-53 53c0 18 9 34 24 44c-1 5-1 11-1 16c0 76 92 138 206 138c113 0 206-62 206-138c0-5-1-10-2-15c16-10 25-27 25-45z m-159 68c-18 0-33-14-33-32c0-18 15-33 33-33c18 0 32 15 32 33c0 18-14 32-32 32z m6 56c-1 1-24 24-77 24c-53 0-74-24-75-25c-3-3-2-9 1-12c4-2 9-2 12 1c0 1 18 20 62 20c45 0 65-20 65-20c3-3 9-3 12 0c3 3 3 8 0 12z m-174-88c0-18 14-33 32-33c18 0 33 15 33 33c0 18-15 32-33 32c-18 0-32-14-32-32z"/>
    </symbol>
  
</svg>
